<svg width="73" height="73" viewBox="0 0 73 73" fill="none" xmlns="http://www.w3.org/2000/svg">
<path d="M36.5 1.46C17.1477 1.46 1.45996 17.1477 1.45996 36.5C1.45996 55.8523 17.1477 71.54 36.5 71.54C55.8523 71.54 71.54 55.8523 71.54 36.5C71.54 17.1477 55.8523 1.46 36.5 1.46ZM27.9225 51.0233H20.8269V28.1889H27.9225V51.0233ZM24.3309 25.3857C22.0898 25.3857 20.6407 23.798 20.6407 21.8343C20.6407 19.8304 22.1336 18.2901 24.4221 18.2901C26.7107 18.2901 28.1123 19.8304 28.1561 21.8343C28.1561 23.798 26.7107 25.3857 24.3309 25.3857ZM53.8375 51.0233H46.7419V38.3688C46.7419 35.4232 45.7126 33.423 43.1466 33.423C41.1866 33.423 40.0222 34.7772 39.5076 36.0802C39.3178 36.5438 39.2703 37.2008 39.2703 37.8542V51.0197H32.1711V35.4707C32.1711 32.6201 32.0798 30.2366 31.9849 28.1853H38.1498L38.4746 31.3571H38.617C39.5514 29.8679 41.8399 27.6706 45.6688 27.6706C50.3371 27.6706 53.8375 30.7987 53.8375 37.522V51.0233V51.0233Z" fill="#660708"/>
</svg>
